<svg width="49" height="101" viewBox="0 0 49 101" fill="none" xmlns="http://www.w3.org/2000/svg">
<path d="M29.4568 7.43662C29.4568 10.0502 26.5669 12 24.4879 12C22.4089 12 19.519 10.0502 19.519 7.43662C19.2179 4.39437 22.5595 0 24.6385 0C26.7174 0 29.9085 4.90141 29.4568 7.43662Z" fill="#B6D780"/>
<path d="M37.8636 26L24.5 23.718L11.1364 26V28L24.5 30.788L37.8636 28V26Z" fill="black"/>
<path d="M6.44795 28C2.88655 28 0 30.452 0 33.476V70.524C0 73.548 2.88655 76 6.44795 76H42.552C46.1135 76 49 73.548 49 70.524V33.476C49 30.452 46.1135 28 42.552 28H6.44795Z" fill="black"/>
<path d="M6.68182 23C6.68182 22.2044 7.03381 21.4413 7.66035 20.8787C8.28689 20.3161 9.13666 20 10.0227 20H38.9773C39.8633 20 40.7131 20.3161 41.3396 20.8787C41.9662 21.4413 42.3182 22.2044 42.3182 23C42.3182 23.7956 41.9662 24.5587 41.3396 25.1213C40.7131 25.6839 39.8633 26 38.9773 26H10.0227C9.13666 26 8.28689 25.6839 7.66035 25.1213C7.03381 24.5587 6.68182 23.7956 6.68182 23Z" fill="black"/>
<path d="M44.5455 39.615C44.5455 35.5556 44.045 31.1111 39.0409 31.1111C34.0368 31.1111 31.1753 31.1111 31.1753 31.1111C30.2443 31.1111 29.7825 33.8576 30.3145 33.138C31.1125 31.9385 31.5115 30.4992 31.1125 28.9399C30.5805 26.541 28.5855 24.6219 26.0585 24.1421C21.6695 23.3025 17.9455 26.3011 17.9455 30.0194C17.9455 31.2189 18.3445 32.1784 18.8765 33.138C19.4085 33.8576 19.1246 31.1111 18.0606 31.1111C18.0606 31.1111 16.1533 31.1111 9.83247 31.1111C3.51167 31.1111 4.51249 37.3333 4.51247 39.615C4.51245 41.8966 4.51247 48.0111 4.51247 48.0111C4.51247 48.8507 5.57647 49.3305 6.37447 48.8507C7.70447 48.131 9.30047 47.7712 11.0295 48.131C13.6895 48.6108 15.8175 50.41 16.3495 52.6889C17.2805 56.5272 13.9555 60.0055 9.83247 60.0055C8.50247 60.0055 7.43847 59.6457 6.37447 59.1659C5.70947 58.6862 4.64547 59.1659 4.64547 60.0055V67.2022C4.64547 69.841 7.03947 72 9.96547 72H39.2255C42.1515 72 44.5455 69.841 44.5455 67.2022C44.5455 67.2022 44.5455 43.6744 44.5455 39.615Z" fill="white"/>
<path d="M11.375 89.4268C11.2871 88.5918 10.6133 88.0938 9.54395 88.0938C8.43066 88.0938 7.81543 88.6064 7.80078 89.3096C7.78613 90.0713 8.5918 90.4229 9.5 90.6279L10.4521 90.8623C12.2686 91.2725 13.6309 92.1953 13.6309 93.9678C13.6309 95.916 12.1074 97.1465 9.5293 97.1465C6.96582 97.1465 5.3252 95.96 5.2666 93.6895H7.40527C7.47852 94.7588 8.32812 95.3008 9.5 95.3008C10.6572 95.3008 11.4043 94.7588 11.4043 93.9678C11.4043 93.25 10.7451 92.9131 9.58789 92.6201L8.43066 92.3418C6.64355 91.9023 5.54492 91.0088 5.54492 89.4561C5.54492 87.5225 7.24414 86.248 9.55859 86.248C11.9023 86.248 13.4551 87.5518 13.4844 89.4268H11.375ZM24.7783 91.6973C24.7783 95.1543 22.625 97.1465 19.8271 97.1465C17 97.1465 14.8613 95.1396 14.8613 91.6973C14.8613 88.2402 17 86.248 19.8271 86.248C22.625 86.248 24.7783 88.2402 24.7783 91.6973ZM22.5371 91.6973C22.5371 89.4268 21.4678 88.1963 19.8271 88.1963C18.1865 88.1963 17.1025 89.4268 17.1025 91.6973C17.1025 93.9678 18.1865 95.1982 19.8271 95.1982C21.4678 95.1982 22.5371 93.9678 22.5371 91.6973ZM25.4814 88.2109V86.3945H34.168V88.2109H30.916V97H28.7334V88.2109H25.4814ZM35.1201 88.2109V86.3945H43.8066V88.2109H40.5547V97H38.3721V88.2109H35.1201Z" fill="black"/>
</svg>
