<svg width="61" height="61" viewBox="0 0 61 61" fill="none" xmlns="http://www.w3.org/2000/svg">
<path d="M30.5 36.75C33.2614 36.75 35.5 34.5114 35.5 31.75C35.5 28.9886 33.2614 26.75 30.5 26.75C27.7386 26.75 25.5 28.9886 25.5 31.75C25.5 34.5114 27.7386 36.75 30.5 36.75Z" fill="white"/>
<path d="M44.25 21.75H39.6406C39.4062 21.75 39.1156 21.5984 38.8891 21.3594L36.8625 18.1609C36.8305 18.1102 36.7947 18.0619 36.7555 18.0164C36.0555 17.2 35.1094 16.75 34.0938 16.75H26.9062C25.8906 16.75 24.9445 17.2 24.2445 18.0164C24.2053 18.0619 24.1695 18.1102 24.1375 18.1609L22.1109 21.3641C21.9375 21.5531 21.6937 21.7547 21.4375 21.7547V21.1297C21.4375 20.7982 21.3058 20.4802 21.0714 20.2458C20.837 20.0114 20.519 19.8797 20.1875 19.8797H18.3125C17.981 19.8797 17.663 20.0114 17.4286 20.2458C17.1942 20.4802 17.0625 20.7982 17.0625 21.1297V21.7547H16.75C15.7558 21.7557 14.8025 22.1511 14.0995 22.8542C13.3965 23.5572 13.001 24.5104 13 25.5047V40.5C13.001 41.4942 13.3965 42.4475 14.0995 43.1505C14.8025 43.8535 15.7558 44.249 16.75 44.25H44.25C45.2442 44.249 46.1975 43.8535 46.9005 43.1505C47.6035 42.4475 47.999 41.4942 48 40.5V25.5C47.999 24.5058 47.6035 23.5525 46.9005 22.8495C46.1975 22.1465 45.2442 21.751 44.25 21.75ZM30.5 39.25C29.0166 39.25 27.5666 38.8101 26.3332 37.986C25.0999 37.1619 24.1386 35.9906 23.5709 34.6201C23.0032 33.2497 22.8547 31.7417 23.1441 30.2868C23.4335 28.832 24.1478 27.4956 25.1967 26.4467C26.2456 25.3978 27.582 24.6835 29.0368 24.3941C30.4917 24.1047 31.9997 24.2532 33.3701 24.8209C34.7406 25.3886 35.9119 26.3499 36.736 27.5832C37.5601 28.8166 38 30.2666 38 31.75C37.9977 33.7384 37.2068 35.6448 35.8008 37.0508C34.3948 38.4568 32.4884 39.2477 30.5 39.25Z" fill="white"/>
</svg>
