<svg width="75" height="75" viewBox="0 0 75 75" fill="none" xmlns="http://www.w3.org/2000/svg">
<g filter="url(#filter0_f_1706_1549)">
<path d="M37.5 64.6984C44.4036 64.6984 50 63.8478 50 62.7984C50 61.7491 44.4036 60.8984 37.5 60.8984C30.5964 60.8984 25 61.7491 25 62.7984C25 63.8478 30.5964 64.6984 37.5 64.6984Z" fill="#241D10" fill-opacity="0.26"/>
</g>
<path d="M25.6034 10.4337L25.5143 10.4791C25.1699 10.6546 25.0329 11.0761 25.2084 11.4206L36.5582 33.6957C36.7337 34.0402 37.1552 34.1772 37.4997 34.0017L37.5888 33.9563C37.9332 33.7807 38.0702 33.3592 37.8947 33.0148L26.5449 10.7396C26.3694 10.3951 25.9479 10.2582 25.6034 10.4337Z" fill="#7E6F63"/>
<path d="M33.1179 8.57593L33.0194 8.59329C32.6387 8.66042 32.3845 9.02348 32.4516 9.40421L36.7928 34.0244C36.86 34.4051 37.223 34.6593 37.6038 34.5922L37.7022 34.5748C38.083 34.5077 38.3372 34.1447 38.27 33.7639L33.9288 9.14374C33.8617 8.76301 33.4986 8.50879 33.1179 8.57593Z" fill="#8C7C6E"/>
<path d="M41.1067 9.06056L41.0076 9.04664C40.6248 8.99284 40.2708 9.25957 40.217 9.64241L36.7377 34.3991C36.6839 34.7819 36.9506 35.1359 37.3335 35.1897L37.4325 35.2036C37.8153 35.2574 38.1693 34.9907 38.2231 34.6079L41.7024 9.85117C41.7562 9.46833 41.4895 9.11436 41.1067 9.06056Z" fill="#98897C"/>
<path d="M47.9868 11.7483L47.8961 11.706C47.5458 11.5426 47.1293 11.6942 46.9659 12.0446L36.4004 34.7023C36.237 35.0526 36.3886 35.4691 36.739 35.6325L36.8296 35.6748C37.18 35.8382 37.5965 35.6866 37.7599 35.3362L48.3253 12.6785C48.4887 12.3281 48.3371 11.9116 47.9868 11.7483Z" fill="#A3968A"/>
<path d="M45.3996 33.3984H29.5996C27.9428 33.3984 26.5996 34.7416 26.5996 36.3984V59.9984C26.5996 61.6553 27.9428 62.9984 29.5996 62.9984H45.3996C47.0565 62.9984 48.3996 61.6553 48.3996 59.9984V36.3984C48.3996 34.7416 47.0565 33.3984 45.3996 33.3984Z" fill="url(#paint0_linear_1706_1549)"/>
<path d="M45.3996 33.3984H29.5996C27.9428 33.3984 26.5996 34.7416 26.5996 36.3984V59.9984C26.5996 61.6553 27.9428 62.9984 29.5996 62.9984H45.3996C47.0565 62.9984 48.3996 61.6553 48.3996 59.9984V36.3984C48.3996 34.7416 47.0565 33.3984 45.3996 33.3984Z" fill="url(#paint1_linear_1706_1549)"/>
<path d="M28.1904 35.1797H28.1704C27.9053 35.1797 27.6904 35.3946 27.6904 35.6597V60.1597C27.6904 60.4248 27.9053 60.6397 28.1704 60.6397H28.1904C28.4555 60.6397 28.6704 60.4248 28.6704 60.1597V35.6597C28.6704 35.3946 28.4555 35.1797 28.1904 35.1797Z" fill="white" fill-opacity="0.6"/>
<path d="M46.6097 35.1797H46.5897C46.3854 35.1797 46.2197 35.3453 46.2197 35.5497V60.2697C46.2197 60.474 46.3854 60.6397 46.5897 60.6397H46.6097C46.8141 60.6397 46.9797 60.474 46.9797 60.2697V35.5497C46.9797 35.3453 46.8141 35.1797 46.6097 35.1797Z" fill="white" fill-opacity="0.34"/>
<path d="M33.5796 37.4095C33.5796 36.5038 32.8476 35.7695 31.9446 35.7695C31.0416 35.7695 30.3096 36.5038 30.3096 37.4095V56.6295C30.3096 57.5353 31.0416 58.2695 31.9446 58.2695C32.8476 58.2695 33.5796 57.5353 33.5796 56.6295V37.4095Z" fill="white" fill-opacity="0.55"/>
<path d="M43.5996 31.1992H31.3996C30.9578 31.1992 30.5996 31.5574 30.5996 31.9992V33.7992C30.5996 34.241 30.9578 34.5992 31.3996 34.5992H43.5996C44.0414 34.5992 44.3996 34.241 44.3996 33.7992V31.9992C44.3996 31.5574 44.0414 31.1992 43.5996 31.1992Z" fill="url(#paint2_linear_1706_1549)"/>
<path d="M45.0002 41H30.0002C29.5584 41 29.2002 41.3582 29.2002 41.8V53.6C29.2002 54.0418 29.5584 54.4 30.0002 54.4H45.0002C45.442 54.4 45.8002 54.0418 45.8002 53.6V41.8C45.8002 41.3582 45.442 41 45.0002 41Z" fill="#F8F7F7" fill-opacity="0.97"/>
<path d="M45.0002 41H30.0002C29.5584 41 29.2002 41.3582 29.2002 41.8V53.6C29.2002 54.0418 29.5584 54.4 30.0002 54.4H45.0002C45.442 54.4 45.8002 54.0418 45.8002 53.6V41.8C45.8002 41.3582 45.442 41 45.0002 41Z" fill="url(#paint3_linear_1706_1549)"/>
<path d="M34.7745 45.3703L35.0698 45.3416C35.0876 45.4407 35.1235 45.5135 35.1775 45.56C35.2322 45.6064 35.3057 45.6297 35.3979 45.6297C35.4957 45.6297 35.5692 45.6092 35.6184 45.5682C35.6683 45.5265 35.6933 45.4779 35.6933 45.4226C35.6933 45.387 35.6827 45.3569 35.6615 45.3323C35.641 45.307 35.6047 45.2852 35.5528 45.2667C35.5172 45.2544 35.4362 45.2325 35.3098 45.2011C35.1471 45.1607 35.0329 45.1112 34.9673 45.0524C34.875 44.9697 34.8289 44.8688 34.8289 44.7499C34.8289 44.6733 34.8504 44.6019 34.8935 44.5356C34.9372 44.4686 34.9998 44.4177 35.0811 44.3828C35.1631 44.3479 35.2619 44.3305 35.3774 44.3305C35.5661 44.3305 35.708 44.3719 35.803 44.4546C35.8987 44.5373 35.9489 44.6477 35.9537 44.7858L35.6502 44.7991C35.6372 44.7219 35.6092 44.6665 35.5661 44.633C35.5237 44.5988 35.4598 44.5817 35.3744 44.5817C35.2862 44.5817 35.2171 44.5999 35.1672 44.6361C35.1351 44.6593 35.119 44.6904 35.119 44.7294C35.119 44.7649 35.1341 44.7954 35.1642 44.8207C35.2024 44.8528 35.2954 44.8863 35.4431 44.9211C35.5907 44.956 35.6998 44.9922 35.7702 45.0298C35.8413 45.0667 35.8966 45.1177 35.9363 45.1826C35.9766 45.2469 35.9968 45.3265 35.9968 45.4215C35.9968 45.5077 35.9729 45.5883 35.925 45.6635C35.8771 45.7387 35.8095 45.7948 35.722 45.8317C35.6345 45.8679 35.5254 45.886 35.3949 45.886C35.2048 45.886 35.0589 45.8423 34.957 45.7548C34.8552 45.6666 34.7943 45.5384 34.7745 45.3703ZM36.1906 45.117C36.1906 44.9639 36.2135 44.8354 36.2593 44.7314C36.2935 44.6549 36.3399 44.5862 36.3987 44.5253C36.4582 44.4645 36.5231 44.4194 36.5936 44.39C36.6872 44.3503 36.7952 44.3305 36.9176 44.3305C37.1391 44.3305 37.3161 44.3992 37.4487 44.5366C37.582 44.674 37.6487 44.8651 37.6487 45.1098C37.6487 45.3525 37.5827 45.5425 37.4508 45.6799C37.3188 45.8167 37.1425 45.885 36.9217 45.885C36.6981 45.885 36.5204 45.817 36.3885 45.681C36.2565 45.5442 36.1906 45.3563 36.1906 45.117ZM36.5033 45.1067C36.5033 45.277 36.5426 45.4062 36.6212 45.4943C36.6999 45.5818 36.7997 45.6256 36.9207 45.6256C37.0417 45.6256 37.1408 45.5822 37.218 45.4954C37.2959 45.4079 37.3349 45.277 37.3349 45.1026C37.3349 44.9304 37.297 44.8019 37.2211 44.7171C37.1459 44.6323 37.0458 44.5899 36.9207 44.5899C36.7956 44.5899 36.6947 44.633 36.6182 44.7191C36.5416 44.8046 36.5033 44.9338 36.5033 45.1067ZM38.225 45.8594V44.6104H37.7789V44.3562H38.9735V44.6104H38.5285V45.8594H38.225ZM39.5087 45.8594V44.6104H39.0627V44.3562H40.2573V44.6104H39.8123V45.8594H39.5087Z" fill="#A68263"/>
<path d="M31.6483 51.3594V48.4245H32.2409V49.5796H33.402V48.4245H33.9946V51.3594H33.402V50.0761H32.2409V51.3594H31.6483ZM34.4891 49.91C34.4891 49.611 34.5338 49.3601 34.6232 49.1572C34.6899 49.0077 34.7807 48.8736 34.8955 48.7548C35.0116 48.6361 35.1384 48.548 35.2758 48.4906C35.4587 48.4132 35.6695 48.3745 35.9084 48.3745C36.3409 48.3745 36.6865 48.5086 36.9455 48.7769C37.2057 49.0451 37.3358 49.4181 37.3358 49.8959C37.3358 50.3697 37.207 50.7408 36.9495 51.009C36.6919 51.276 36.3475 51.4094 35.9165 51.4094C35.48 51.4094 35.133 51.2766 34.8754 51.011C34.6179 50.7441 34.4891 50.3771 34.4891 49.91ZM35.0997 49.8899C35.0997 50.2223 35.1764 50.4745 35.3299 50.6467C35.4834 50.8175 35.6782 50.9029 35.9145 50.9029C36.1507 50.9029 36.3442 50.8182 36.495 50.6487C36.6472 50.4778 36.7232 50.2223 36.7232 49.8819C36.7232 49.5456 36.6492 49.2947 36.501 49.1292C36.3542 48.9637 36.1587 48.881 35.9145 48.881C35.6702 48.881 35.4734 48.965 35.3239 49.1332C35.1744 49.3 35.0997 49.5523 35.0997 49.8899ZM37.7923 51.3594V48.4245H38.6792L39.2117 50.4265L39.7382 48.4245H40.6271V51.3594H40.0765V49.0491L39.4939 51.3594H38.9234L38.3428 49.0491V51.3594H37.7923ZM41.2156 51.3594V48.4245H43.3917V48.921H41.8082V49.5716H43.2816V50.0661H41.8082V50.8649H43.4478V51.3594H41.2156Z" fill="#825935"/>
<defs>
<filter id="filter0_f_1706_1549" x="22.7" y="58.5984" width="29.6" height="8.40078" filterUnits="userSpaceOnUse" color-interpolation-filters="sRGB">
<feFlood flood-opacity="0" result="BackgroundImageFix"/>
<feBlend mode="normal" in="SourceGraphic" in2="BackgroundImageFix" result="shape"/>
<feGaussianBlur stdDeviation="1.15" result="effect1_foregroundBlur_1706_1549"/>
</filter>
<linearGradient id="paint0_linear_1706_1549" x1="26.5996" y1="33.3984" x2="48.3996" y2="33.3984" gradientUnits="userSpaceOnUse">
<stop stop-color="#7D5430"/>
<stop offset="0.08" stop-color="#B87C47"/>
<stop offset="0.17" stop-color="#CCA17B"/>
<stop offset="0.25" stop-color="#F1E5DA"/>
<stop offset="0.34" stop-color="#D1AB89"/>
<stop offset="0.5" stop-color="#BB814F"/>
<stop offset="0.7" stop-color="#845933"/>
<stop offset="0.86" stop-color="#BD8656"/>
<stop offset="1" stop-color="#724D2C"/>
</linearGradient>
<linearGradient id="paint1_linear_1706_1549" x1="26.5996" y1="33.3984" x2="26.5996" y2="62.9984" gradientUnits="userSpaceOnUse">
<stop stop-opacity="0.2"/>
<stop offset="0.12" stop-opacity="0"/>
<stop offset="0.85" stop-opacity="0"/>
<stop offset="1" stop-opacity="0.12"/>
</linearGradient>
<linearGradient id="paint2_linear_1706_1549" x1="30.5996" y1="31.1992" x2="44.3996" y2="31.1992" gradientUnits="userSpaceOnUse">
<stop stop-color="#87867F"/>
<stop offset="0.16" stop-color="#CFCEC9"/>
<stop offset="0.34" stop-color="#F6F5F1"/>
<stop offset="0.52" stop-color="#C0BFB8"/>
<stop offset="0.76" stop-color="#95948C"/>
<stop offset="1" stop-color="#77766F"/>
</linearGradient>
<linearGradient id="paint3_linear_1706_1549" x1="29.2002" y1="41" x2="29.2002" y2="54.4" gradientUnits="userSpaceOnUse">
<stop stop-opacity="0.08"/>
<stop offset="0.22" stop-opacity="0"/>
<stop offset="1" stop-opacity="0.06"/>
</linearGradient>
</defs>
</svg>
