<svg width="75" height="75" viewBox="0 0 75 75" fill="none" xmlns="http://www.w3.org/2000/svg">
<g filter="url(#filter0_f_1706_2038)">
<path d="M37.5 64.9C42.7467 64.9 47 64.1389 47 63.2C47 62.2611 42.7467 61.5 37.5 61.5C32.2533 61.5 28 62.2611 28 63.2C28 64.1389 32.2533 64.9 37.5 64.9Z" fill="#241D10" fill-opacity="0.26"/>
</g>
<path d="M42.8996 9.39844H32.0996C31.2712 9.39844 30.5996 10.07 30.5996 10.8984V24.4984C30.5996 25.3269 31.2712 25.9984 32.0996 25.9984H42.8996C43.728 25.9984 44.3996 25.3269 44.3996 24.4984V10.8984C44.3996 10.07 43.728 9.39844 42.8996 9.39844Z" fill="url(#paint0_linear_1706_2038)"/>
<path d="M42.8996 9.39844H32.0996C31.2712 9.39844 30.5996 10.07 30.5996 10.8984V12.5484C30.5996 13.3769 31.2712 14.0484 32.0996 14.0484H42.8996C43.728 14.0484 44.3996 13.3769 44.3996 12.5484V10.8984C44.3996 10.07 43.728 9.39844 42.8996 9.39844Z" fill="white" fill-opacity="0.14"/>
<path d="M34.1902 12.1786C34.1902 11.8362 33.9126 11.5586 33.5702 11.5586C33.2278 11.5586 32.9502 11.8362 32.9502 12.1786V23.2186C32.9502 23.561 33.2278 23.8386 33.5702 23.8386C33.9126 23.8386 34.1902 23.561 34.1902 23.2186V12.1786Z" fill="white" fill-opacity="0.45"/>
<path d="M43.2004 25.3984H31.8004C31.5795 25.3984 31.4004 25.5775 31.4004 25.7984V26.5984C31.4004 26.8194 31.5795 26.9984 31.8004 26.9984H43.2004C43.4213 26.9984 43.6004 26.8194 43.6004 26.5984V25.7984C43.6004 25.5775 43.4213 25.3984 43.2004 25.3984Z" fill="#8E663E"/>
<path d="M41.9004 26.6016H33.1004C32.1615 26.6016 31.4004 27.3627 31.4004 28.3016V61.3016C31.4004 62.2404 32.1615 63.0016 33.1004 63.0016H41.9004C42.8393 63.0016 43.6004 62.2404 43.6004 61.3016V28.3016C43.6004 27.3627 42.8393 26.6016 41.9004 26.6016Z" fill="url(#paint1_linear_1706_2038)"/>
<path d="M41.9004 26.6016H33.1004C32.1615 26.6016 31.4004 27.3627 31.4004 28.3016V61.3016C31.4004 62.2404 32.1615 63.0016 33.1004 63.0016H41.9004C42.8393 63.0016 43.6004 62.2404 43.6004 61.3016V28.3016C43.6004 27.3627 42.8393 26.6016 41.9004 26.6016Z" fill="url(#paint2_linear_1706_2038)"/>
<path d="M32.2898 28.7812H32.2798C32.1306 28.7812 32.0098 28.9021 32.0098 29.0512V59.8113C32.0098 59.9604 32.1306 60.0813 32.2798 60.0813H32.2898C32.4389 60.0813 32.5598 59.9604 32.5598 59.8113V29.0512C32.5598 28.9021 32.4389 28.7812 32.2898 28.7812Z" fill="white" fill-opacity="0.6"/>
<path d="M42.5999 28.7812H42.5899C42.4739 28.7812 42.3799 28.8753 42.3799 28.9912V59.8712C42.3799 59.9872 42.4739 60.0813 42.5899 60.0813H42.5999C42.7159 60.0813 42.8099 59.9872 42.8099 59.8712V28.9912C42.8099 28.8753 42.7159 28.7812 42.5999 28.7812Z" fill="white" fill-opacity="0.34"/>
<path d="M34.3897 29.5117H34.3797C33.8771 29.5117 33.4697 29.9191 33.4697 30.4217V56.2617C33.4697 56.7643 33.8771 57.1717 34.3797 57.1717H34.3897C34.8923 57.1717 35.2997 56.7643 35.2997 56.2617V30.4217C35.2997 29.9191 34.8923 29.5117 34.3897 29.5117Z" fill="white" fill-opacity="0.55"/>
<path d="M42.0002 41H33.0002C32.5584 41 32.2002 41.3582 32.2002 41.8V53.2C32.2002 53.6418 32.5584 54 33.0002 54H42.0002C42.442 54 42.8002 53.6418 42.8002 53.2V41.8C42.8002 41.3582 42.442 41 42.0002 41Z" fill="#F8F7F7" fill-opacity="0.97"/>
<path d="M42.0002 41H33.0002C32.5584 41 32.2002 41.3582 32.2002 41.8V53.2C32.2002 53.6418 32.5584 54 33.0002 54H42.0002C42.442 54 42.8002 53.6418 42.8002 53.2V41.8C42.8002 41.3582 42.442 41 42.0002 41Z" fill="url(#paint3_linear_1706_2038)"/>
<path d="M35.5922 46.8178L35.7989 46.7977C35.8113 46.8671 35.8364 46.918 35.8742 46.9506C35.9125 46.9831 35.964 46.9994 36.0286 46.9994C36.097 46.9994 36.1484 46.985 36.1829 46.9563C36.2178 46.9271 36.2353 46.8931 36.2353 46.8544C36.2353 46.8295 36.2279 46.8084 36.213 46.7912C36.1987 46.7735 36.1733 46.7582 36.1369 46.7453C36.1121 46.7367 36.0554 46.7214 35.9668 46.6993C35.8529 46.6711 35.773 46.6364 35.7271 46.5953C35.6625 46.5374 35.6302 46.4668 35.6302 46.3835C35.6302 46.3299 35.6453 46.2799 35.6754 46.2335C35.706 46.1866 35.7498 46.151 35.8068 46.1266C35.8642 46.1022 35.9333 46.09 36.0142 46.09C36.1463 46.09 36.2456 46.1189 36.3121 46.1768C36.3791 46.2347 36.4142 46.312 36.4176 46.4086L36.2051 46.418C36.196 46.3639 36.1764 46.3251 36.1463 46.3017C36.1166 46.2778 36.0719 46.2658 36.0121 46.2658C35.9503 46.2658 35.902 46.2785 35.8671 46.3039C35.8446 46.3201 35.8333 46.3419 35.8333 46.3692C35.8333 46.3941 35.8439 46.4153 35.8649 46.4331C35.8917 46.4555 35.9568 46.479 36.0601 46.5034C36.1635 46.5278 36.2398 46.5532 36.2891 46.5795C36.3389 46.6053 36.3776 46.641 36.4054 46.6864C36.4336 46.7314 36.4477 46.7872 36.4477 46.8537C36.4477 46.914 36.431 46.9704 36.3975 47.0231C36.364 47.0757 36.3166 47.1149 36.2554 47.1408C36.1941 47.1661 36.1178 47.1788 36.0264 47.1788C35.8934 47.1788 35.7912 47.1482 35.7199 47.0869C35.6486 47.0252 35.606 46.9355 35.5922 46.8178ZM36.5834 46.6405C36.5834 46.5333 36.5994 46.4433 36.6315 46.3706C36.6554 46.317 36.688 46.2689 36.7291 46.2263C36.7707 46.1837 36.8162 46.1522 36.8655 46.1316C36.931 46.1038 37.0067 46.09 37.0923 46.09C37.2473 46.09 37.3713 46.138 37.4641 46.2342C37.5574 46.3304 37.6041 46.4642 37.6041 46.6355C37.6041 46.8053 37.5579 46.9384 37.4655 47.0345C37.3732 47.1302 37.2497 47.1781 37.0952 47.1781C36.9387 47.1781 36.8143 47.1305 36.7219 47.0353C36.6296 46.9396 36.5834 46.808 36.5834 46.6405ZM36.8023 46.6333C36.8023 46.7525 36.8298 46.8429 36.8849 46.9046C36.9399 46.9659 37.0098 46.9965 37.0945 46.9965C37.1792 46.9965 37.2485 46.9661 37.3026 46.9053C37.3572 46.8441 37.3844 46.7525 37.3844 46.6304C37.3844 46.5099 37.3579 46.4199 37.3048 46.3606C37.2521 46.3012 37.182 46.2716 37.0945 46.2716C37.0069 46.2716 36.9363 46.3017 36.8827 46.362C36.8291 46.4218 36.8023 46.5122 36.8023 46.6333ZM38.0075 47.1602V46.2859H37.6952V46.1079H38.5314V46.2859H38.2199V47.1602H38.0075ZM38.9061 47.1602V46.2859H38.5939V46.1079H39.4301V46.2859H39.1186V47.1602H38.9061Z" fill="#BD854C"/>
<path d="M33.5889 48.9094L33.9643 48.8729C33.9869 48.9989 34.0326 49.0915 34.1012 49.1506C34.1708 49.2097 34.2642 49.2392 34.3815 49.2392C34.5058 49.2392 34.5992 49.2131 34.6618 49.161C34.7253 49.108 34.757 49.0463 34.757 48.9759C34.757 48.9307 34.7435 48.8924 34.7166 48.8611C34.6905 48.829 34.6444 48.8012 34.5784 48.7777C34.5332 48.7621 34.4302 48.7342 34.2694 48.6943C34.0625 48.643 33.9174 48.58 33.834 48.5052C33.7166 48.4001 33.658 48.2719 33.658 48.1206C33.658 48.0233 33.6853 47.9325 33.7401 47.8482C33.7957 47.763 33.8752 47.6982 33.9787 47.6539C34.083 47.6096 34.2086 47.5874 34.3554 47.5874C34.5953 47.5874 34.7757 47.64 34.8965 47.7452C35.0182 47.8503 35.0821 47.9907 35.0881 48.1663L34.7022 48.1832C34.6857 48.085 34.6501 48.0146 34.5953 47.972C34.5414 47.9286 34.4602 47.9068 34.3515 47.9068C34.2394 47.9068 34.1516 47.9299 34.0882 47.9759C34.0473 48.0055 34.0269 48.045 34.0269 48.0946C34.0269 48.1398 34.046 48.1784 34.0843 48.2106C34.1329 48.2514 34.2512 48.294 34.4389 48.3384C34.6266 48.3827 34.7652 48.4287 34.8548 48.4765C34.9452 48.5235 35.0156 48.5882 35.066 48.6708C35.1173 48.7525 35.1429 48.8538 35.1429 48.9746C35.1429 49.0841 35.1125 49.1866 35.0516 49.2822C34.9908 49.3778 34.9047 49.4491 34.7935 49.496C34.6822 49.5421 34.5436 49.5651 34.3776 49.5651C34.136 49.5651 33.9504 49.5095 33.8209 49.3983C33.6914 49.2862 33.6141 49.1232 33.5889 48.9094ZM35.8977 49.5312V47.9433H35.3306V47.62H36.8494V47.9433H36.2836V49.5312H35.8977ZM37.088 49.5312V47.62H37.4739V49.5312H37.088ZM39.0658 48.8285L39.4399 48.9472C39.3826 49.1558 39.287 49.3109 39.1531 49.4126C39.0201 49.5134 38.8511 49.5638 38.646 49.5638C38.3922 49.5638 38.1836 49.4774 38.0202 49.3044C37.8568 49.1306 37.7751 48.8933 37.7751 48.5926C37.7751 48.2745 37.8572 48.0276 38.0215 47.8521C38.1858 47.6756 38.4017 47.5874 38.6694 47.5874C38.9032 47.5874 39.0931 47.6565 39.2392 47.7947C39.3261 47.8764 39.3912 47.9937 39.4347 48.1467L39.0527 48.238C39.0301 48.1389 38.9828 48.0607 38.9106 48.0033C38.8393 47.9459 38.7524 47.9173 38.6499 47.9173C38.5082 47.9173 38.393 47.9681 38.3044 48.0698C38.2166 48.1715 38.1727 48.3362 38.1727 48.5639C38.1727 48.8055 38.2162 48.9776 38.3031 49.0802C38.39 49.1827 38.503 49.234 38.6421 49.234C38.7446 49.234 38.8328 49.2014 38.9067 49.1362C38.9806 49.071 39.0336 48.9685 39.0658 48.8285ZM39.7776 49.5312V47.62H40.1635V48.4687L40.9431 47.62H41.462L40.7423 48.3644L41.5011 49.5312H41.0018L40.4764 48.6343L40.1635 48.9537V49.5312H39.7776Z" fill="#915418"/>
<defs>
<filter id="filter0_f_1706_2038" x="25.7" y="59.2" width="23.6" height="7.99844" filterUnits="userSpaceOnUse" color-interpolation-filters="sRGB">
<feFlood flood-opacity="0" result="BackgroundImageFix"/>
<feBlend mode="normal" in="SourceGraphic" in2="BackgroundImageFix" result="shape"/>
<feGaussianBlur stdDeviation="1.15" result="effect1_foregroundBlur_1706_2038"/>
</filter>
<linearGradient id="paint0_linear_1706_2038" x1="30.5996" y1="9.39844" x2="44.3996" y2="9.39844" gradientUnits="userSpaceOnUse">
<stop stop-color="#C9C6BF"/>
<stop offset="0.16" stop-color="#EDEBE6"/>
<stop offset="0.34" stop-color="white"/>
<stop offset="0.52" stop-color="#F0EEE9"/>
<stop offset="0.76" stop-color="#D4D1CA"/>
<stop offset="1" stop-color="#BEBBB4"/>
</linearGradient>
<linearGradient id="paint1_linear_1706_2038" x1="31.4004" y1="26.6016" x2="43.6004" y2="26.6016" gradientUnits="userSpaceOnUse">
<stop stop-color="#884D11"/>
<stop offset="0.08" stop-color="#BF6B18"/>
<stop offset="0.17" stop-color="#E48525"/>
<stop offset="0.25" stop-color="#EEB377"/>
<stop offset="0.34" stop-color="#E7913C"/>
<stop offset="0.5" stop-color="#CC7319"/>
<stop offset="0.7" stop-color="#8D4F11"/>
<stop offset="0.86" stop-color="#C87019"/>
<stop offset="1" stop-color="#7B450F"/>
</linearGradient>
<linearGradient id="paint2_linear_1706_2038" x1="31.4004" y1="26.6016" x2="31.4004" y2="63.0016" gradientUnits="userSpaceOnUse">
<stop stop-opacity="0.2"/>
<stop offset="0.12" stop-opacity="0"/>
<stop offset="0.85" stop-opacity="0"/>
<stop offset="1" stop-opacity="0.12"/>
</linearGradient>
<linearGradient id="paint3_linear_1706_2038" x1="32.2002" y1="41" x2="32.2002" y2="54" gradientUnits="userSpaceOnUse">
<stop stop-opacity="0.08"/>
<stop offset="0.22" stop-opacity="0"/>
<stop offset="1" stop-opacity="0.06"/>
</linearGradient>
</defs>
</svg>
