<svg width="75" height="75" viewBox="0 0 75 75" fill="none" xmlns="http://www.w3.org/2000/svg">
<g filter="url(#filter0_f_1706_2053)">
<path d="M37.5 65.1008C44.4036 65.1008 50 64.2501 50 63.2008C50 62.1514 44.4036 61.3008 37.5 61.3008C30.5964 61.3008 25 62.1514 25 63.2008C25 64.2501 30.5964 65.1008 37.5 65.1008Z" fill="#241D10" fill-opacity="0.26"/>
</g>
<path d="M39.9996 7.39844H34.7996C34.1369 7.39844 33.5996 7.9357 33.5996 8.59844V8.79844C33.5996 9.46118 34.1369 9.99844 34.7996 9.99844H39.9996C40.6624 9.99844 41.1996 9.46118 41.1996 8.79844V8.59844C41.1996 7.9357 40.6624 7.39844 39.9996 7.39844Z" fill="url(#paint0_linear_1706_2053)"/>
<path d="M39.9996 7.39844H34.7996C34.1369 7.39844 33.5996 7.56185 33.5996 7.76344C33.5996 7.96502 34.1369 8.12844 34.7996 8.12844H39.9996C40.6624 8.12844 41.1996 7.96502 41.1996 7.76344C41.1996 7.56185 40.6624 7.39844 39.9996 7.39844Z" fill="white" fill-opacity="0.14"/>
<path d="M35.5696 8.07828C35.5696 7.8905 35.4174 7.73828 35.2296 7.73828C35.0419 7.73828 34.8896 7.8905 34.8896 8.07828V9.31828C34.8896 9.50606 35.0419 9.65828 35.2296 9.65828C35.4174 9.65828 35.5696 9.50606 35.5696 9.31828V8.07828Z" fill="white" fill-opacity="0.45"/>
<path d="M39.3004 9.60156H36.1004C35.7138 9.60156 35.4004 9.91496 35.4004 10.3016V15.3016C35.4004 15.6882 35.7138 16.0016 36.1004 16.0016H39.3004C39.687 16.0016 40.0004 15.6882 40.0004 15.3016V10.3016C40.0004 9.91496 39.687 9.60156 39.3004 9.60156Z" fill="url(#paint1_linear_1706_2053)"/>
<path d="M42.7004 15.3984H32.7004C31.9824 15.3984 31.4004 15.9805 31.4004 16.6984V18.2984C31.4004 19.0164 31.9824 19.5984 32.7004 19.5984H42.7004C43.4184 19.5984 44.0004 19.0164 44.0004 18.2984V16.6984C44.0004 15.9805 43.4184 15.3984 42.7004 15.3984Z" fill="url(#paint2_linear_1706_2053)"/>
<path d="M42.7004 15.3984H32.7004C31.9824 15.3984 31.4004 15.6626 31.4004 15.9884C31.4004 16.3143 31.9824 16.5784 32.7004 16.5784H42.7004C43.4184 16.5784 44.0004 16.3143 44.0004 15.9884C44.0004 15.6626 43.4184 15.3984 42.7004 15.3984Z" fill="white" fill-opacity="0.14"/>
<path d="M34.67 16.5192C34.67 16.2044 34.4171 15.9492 34.105 15.9492C33.793 15.9492 33.54 16.2044 33.54 16.5192V18.4892C33.54 18.804 33.793 19.0592 34.105 19.0592C34.4171 19.0592 34.67 18.804 34.67 18.4892V16.5192Z" fill="white" fill-opacity="0.45"/>
<path d="M44.9996 19.1992H30.1996C28.7637 19.1992 27.5996 20.3633 27.5996 21.7992V60.3992C27.5996 61.8352 28.7637 62.9992 30.1996 62.9992H44.9996C46.4355 62.9992 47.5996 61.8352 47.5996 60.3992V21.7992C47.5996 20.3633 46.4355 19.1992 44.9996 19.1992Z" fill="url(#paint3_linear_1706_2053)"/>
<path d="M44.9996 19.1992H30.1996C28.7637 19.1992 27.5996 20.3633 27.5996 21.7992V60.3992C27.5996 61.8352 28.7637 62.9992 30.1996 62.9992H44.9996C46.4355 62.9992 47.5996 61.8352 47.5996 60.3992V21.7992C47.5996 20.3633 46.4355 19.1992 44.9996 19.1992Z" fill="url(#paint4_linear_1706_2053)"/>
<path d="M29.0596 21.8281H29.0396C28.7966 21.8281 28.5996 22.0251 28.5996 22.2681V59.0581C28.5996 59.3011 28.7966 59.4981 29.0396 59.4981H29.0596C29.3026 59.4981 29.4996 59.3011 29.4996 59.0581V22.2681C29.4996 22.0251 29.3026 21.8281 29.0596 21.8281Z" fill="white" fill-opacity="0.6"/>
<path d="M45.9596 21.8281H45.9396C45.7518 21.8281 45.5996 21.9803 45.5996 22.1681V59.1581C45.5996 59.3459 45.7518 59.4981 45.9396 59.4981H45.9596C46.1474 59.4981 46.2996 59.3459 46.2996 59.1581V22.1681C46.2996 21.9803 46.1474 21.8281 45.9596 21.8281Z" fill="white" fill-opacity="0.34"/>
<path d="M34 24.1992C34 23.3708 33.3284 22.6992 32.5 22.6992C31.6716 22.6992 31 23.3708 31 24.1992V54.4892C31 55.3176 31.6716 55.9892 32.5 55.9892C33.3284 55.9892 34 55.3176 34 54.4892V24.1992Z" fill="white" fill-opacity="0.8"/>
<path d="M44.3998 39.6016H30.5998C30.158 39.6016 29.7998 39.9597 29.7998 40.4016V52.8016C29.7998 53.2434 30.158 53.6016 30.5998 53.6016H44.3998C44.8416 53.6016 45.1998 53.2434 45.1998 52.8016V40.4016C45.1998 39.9597 44.8416 39.6016 44.3998 39.6016Z" fill="#F8F7F7" fill-opacity="0.97"/>
<path d="M44.3998 39.6016H30.5998C30.158 39.6016 29.7998 39.9597 29.7998 40.4016V52.8016C29.7998 53.2434 30.158 53.6016 30.5998 53.6016H44.3998C44.8416 53.6016 45.1998 53.2434 45.1998 52.8016V40.4016C45.1998 39.9597 44.8416 39.6016 44.3998 39.6016Z" fill="url(#paint5_linear_1706_2053)"/>
<path d="M34.7745 44.3117L35.0698 44.283C35.0876 44.3821 35.1235 44.4549 35.1775 44.5014C35.2322 44.5479 35.3057 44.5711 35.3979 44.5711C35.4957 44.5711 35.5692 44.5506 35.6184 44.5096C35.6683 44.4679 35.6933 44.4193 35.6933 44.364C35.6933 44.3284 35.6827 44.2983 35.6615 44.2737C35.641 44.2484 35.6047 44.2266 35.5528 44.2081C35.5172 44.1958 35.4362 44.1739 35.3098 44.1425C35.1471 44.1021 35.0329 44.0526 34.9673 43.9938C34.875 43.9111 34.8289 43.8103 34.8289 43.6913C34.8289 43.6147 34.8504 43.5433 34.8935 43.477C34.9372 43.41 34.9998 43.3591 35.0811 43.3242C35.1631 43.2894 35.2619 43.2719 35.3774 43.2719C35.5661 43.2719 35.708 43.3133 35.803 43.396C35.8987 43.4787 35.9489 43.5891 35.9537 43.7272L35.6502 43.7405C35.6372 43.6633 35.6092 43.6079 35.5661 43.5744C35.5237 43.5402 35.4598 43.5231 35.3744 43.5231C35.2862 43.5231 35.2171 43.5413 35.1672 43.5775C35.1351 43.6007 35.119 43.6318 35.119 43.6708C35.119 43.7063 35.1341 43.7368 35.1642 43.7621C35.2024 43.7942 35.2954 43.8277 35.4431 43.8625C35.5907 43.8974 35.6998 43.9336 35.7702 43.9712C35.8413 44.0082 35.8966 44.0591 35.9363 44.124C35.9766 44.1883 35.9968 44.2679 35.9968 44.3629C35.9968 44.4491 35.9729 44.5297 35.925 44.6049C35.8771 44.6801 35.8095 44.7362 35.722 44.7731C35.6345 44.8093 35.5254 44.8274 35.3949 44.8274C35.2048 44.8274 35.0589 44.7837 34.957 44.6962C34.8552 44.608 34.7943 44.4798 34.7745 44.3117ZM36.1906 44.0584C36.1906 43.9053 36.2135 43.7768 36.2593 43.6729C36.2935 43.5963 36.3399 43.5276 36.3987 43.4667C36.4582 43.4059 36.5231 43.3608 36.5936 43.3314C36.6872 43.2917 36.7952 43.2719 36.9176 43.2719C37.1391 43.2719 37.3161 43.3406 37.4487 43.478C37.582 43.6154 37.6487 43.8065 37.6487 44.0512C37.6487 44.2939 37.5827 44.4839 37.4508 44.6213C37.3188 44.7581 37.1425 44.8264 36.9217 44.8264C36.6981 44.8264 36.5204 44.7584 36.3885 44.6224C36.2565 44.4856 36.1906 44.2977 36.1906 44.0584ZM36.5033 44.0481C36.5033 44.2184 36.5426 44.3476 36.6212 44.4357C36.6999 44.5232 36.7997 44.567 36.9207 44.567C37.0417 44.567 37.1408 44.5236 37.218 44.4368C37.2959 44.3493 37.3349 44.2184 37.3349 44.044C37.3349 43.8718 37.297 43.7433 37.2211 43.6585C37.1459 43.5737 37.0458 43.5313 36.9207 43.5313C36.7956 43.5313 36.6947 43.5744 36.6182 43.6605C36.5416 43.746 36.5033 43.8752 36.5033 44.0481ZM38.225 44.8008V43.5519H37.7789V43.2976H38.9735V43.5519H38.5285V44.8008H38.225ZM39.5087 44.8008V43.5519H39.0627V43.2976H40.2573V43.5519H39.8123V44.8008H39.5087Z" fill="#A96074"/>
<path d="M31.316 50.2891V47.8507H30.4451V47.3542H32.7774V47.8507H31.9085V50.2891H31.316ZM32.9696 48.8396C32.9696 48.5407 33.0143 48.2898 33.1037 48.0869C33.1704 47.9374 33.2612 47.8033 33.376 47.6845C33.4921 47.5657 33.6189 47.4777 33.7563 47.4203C33.9392 47.3429 34.1501 47.3042 34.389 47.3042C34.8214 47.3042 35.1671 47.4383 35.426 47.7065C35.6862 47.9748 35.8164 48.3478 35.8164 48.8256C35.8164 49.2994 35.6876 49.6705 35.43 49.9387C35.1724 50.2056 34.8281 50.3391 34.397 50.3391C33.9605 50.3391 33.6135 50.2063 33.356 49.9407C33.0984 49.6738 32.9696 49.3068 32.9696 48.8396ZM33.5802 48.8196C33.5802 49.152 33.6569 49.4042 33.8104 49.5764C33.9639 49.7472 34.1587 49.8326 34.395 49.8326C34.6312 49.8326 34.8247 49.7479 34.9755 49.5784C35.1277 49.4075 35.2038 49.152 35.2038 48.8116C35.2038 48.4753 35.1297 48.2244 34.9815 48.0589C34.8347 47.8934 34.6392 47.8106 34.395 47.8106C34.1507 47.8106 33.9539 47.8947 33.8044 48.0629C33.6549 48.2297 33.5802 48.482 33.5802 48.8196ZM36.2868 50.2891V47.3542H36.8634L38.0646 49.3141V47.3542H38.6151V50.2891H38.0205L36.8374 48.3752V50.2891H36.2868ZM39.2437 50.2891V47.3542H41.4198V47.8507H39.8363V48.5013H41.3097V48.9958H39.8363V49.7946H41.4759V50.2891H39.2437ZM41.9804 50.2891V47.3542H43.2276C43.5412 47.3542 43.7688 47.3809 43.9103 47.4343C44.0531 47.4863 44.1672 47.5798 44.2526 47.7146C44.338 47.8493 44.3807 48.0035 44.3807 48.177C44.3807 48.3972 44.316 48.5794 44.1865 48.7235C44.0571 48.8663 43.8635 48.9564 43.606 48.9938C43.7341 49.0685 43.8395 49.1506 43.9223 49.24C44.0063 49.3295 44.1191 49.4883 44.2606 49.7165L44.6189 50.2891H43.9103L43.4818 49.6504C43.3297 49.4222 43.2256 49.2787 43.1695 49.22C43.1135 49.16 43.0541 49.1193 42.9914 49.0979C42.9286 49.0752 42.8292 49.0639 42.6931 49.0639H42.5729V50.2891H41.9804ZM42.5729 48.5954H43.0114C43.2957 48.5954 43.4732 48.5834 43.5439 48.5594C43.6146 48.5354 43.67 48.494 43.7101 48.4353C43.7501 48.3765 43.7701 48.3031 43.7701 48.215C43.7701 48.1163 43.7434 48.0369 43.69 47.9768C43.638 47.9154 43.5639 47.8767 43.4678 47.8607C43.4198 47.854 43.2756 47.8507 43.0354 47.8507H42.5729V48.5954Z" fill="#863248"/>
<defs>
<filter id="filter0_f_1706_2053" x="22.7" y="59.0008" width="29.6" height="8.40078" filterUnits="userSpaceOnUse" color-interpolation-filters="sRGB">
<feFlood flood-opacity="0" result="BackgroundImageFix"/>
<feBlend mode="normal" in="SourceGraphic" in2="BackgroundImageFix" result="shape"/>
<feGaussianBlur stdDeviation="1.15" result="effect1_foregroundBlur_1706_2053"/>
</filter>
<linearGradient id="paint0_linear_1706_2053" x1="33.5996" y1="7.39844" x2="41.1996" y2="7.39844" gradientUnits="userSpaceOnUse">
<stop stop-color="#87867F"/>
<stop offset="0.16" stop-color="#CFCEC9"/>
<stop offset="0.34" stop-color="#F6F5F1"/>
<stop offset="0.52" stop-color="#C0BFB8"/>
<stop offset="0.76" stop-color="#95948C"/>
<stop offset="1" stop-color="#77766F"/>
</linearGradient>
<linearGradient id="paint1_linear_1706_2053" x1="35.4004" y1="9.60156" x2="40.0004" y2="9.60156" gradientUnits="userSpaceOnUse">
<stop stop-color="#87867F"/>
<stop offset="0.16" stop-color="#CFCEC9"/>
<stop offset="0.34" stop-color="#F6F5F1"/>
<stop offset="0.52" stop-color="#C0BFB8"/>
<stop offset="0.76" stop-color="#95948C"/>
<stop offset="1" stop-color="#77766F"/>
</linearGradient>
<linearGradient id="paint2_linear_1706_2053" x1="31.4004" y1="15.3984" x2="44.0004" y2="15.3984" gradientUnits="userSpaceOnUse">
<stop stop-color="#87867F"/>
<stop offset="0.16" stop-color="#CFCEC9"/>
<stop offset="0.34" stop-color="#F6F5F1"/>
<stop offset="0.52" stop-color="#C0BFB8"/>
<stop offset="0.76" stop-color="#95948C"/>
<stop offset="1" stop-color="#77766F"/>
</linearGradient>
<linearGradient id="paint3_linear_1706_2053" x1="27.5996" y1="19.1992" x2="47.5996" y2="19.1992" gradientUnits="userSpaceOnUse">
<stop stop-color="#C4A1AA"/>
<stop offset="0.08" stop-color="#DCC7CC"/>
<stop offset="0.17" stop-color="#E9DCE0"/>
<stop offset="0.25" stop-color="#F7F2F4"/>
<stop offset="0.34" stop-color="#EDE3E6"/>
<stop offset="0.5" stop-color="#DECACF"/>
<stop offset="0.7" stop-color="#C6A4AD"/>
<stop offset="0.86" stop-color="#E0CDD2"/>
<stop offset="1" stop-color="#BE97A2"/>
</linearGradient>
<linearGradient id="paint4_linear_1706_2053" x1="27.5996" y1="19.1992" x2="27.5996" y2="62.9992" gradientUnits="userSpaceOnUse">
<stop stop-opacity="0.2"/>
<stop offset="0.12" stop-opacity="0"/>
<stop offset="0.85" stop-opacity="0"/>
<stop offset="1" stop-opacity="0.12"/>
</linearGradient>
<linearGradient id="paint5_linear_1706_2053" x1="29.7998" y1="39.6016" x2="29.7998" y2="53.6016" gradientUnits="userSpaceOnUse">
<stop stop-opacity="0.08"/>
<stop offset="0.22" stop-opacity="0"/>
<stop offset="1" stop-opacity="0.06"/>
</linearGradient>
</defs>
</svg>
